<mxfile host="app.diagrams.net" modified="2023-10-16T06:09:50.587Z" agent="Mozilla/5.0 (Windows NT 10.0; Win64; x64) AppleWebKit/537.36 (KHTML, like Gecko) Chrome/116.0.0.0 Safari/537.36 OPR/102.0.0.0" etag="_SRMoKx626cvjFMQSKTs" version="22.0.4" type="github">
  <diagram name="Page-1" id="4JQg721ov3jjXgK3_2AB">
    <mxGraphModel dx="1189" dy="591" grid="1" gridSize="10" guides="1" tooltips="1" connect="1" arrows="1" fold="1" page="1" pageScale="1" pageWidth="850" pageHeight="1100" math="0" shadow="0">
      <root>
        <mxCell id="0" />
        <mxCell id="1" parent="0" />
        <mxCell id="bWRKLLHgpeZalE5h4NvW-53" value="Matrícula" style="whiteSpace=wrap;html=1;" vertex="1" parent="1">
          <mxGeometry x="605" y="812.5" width="90" height="40" as="geometry" />
        </mxCell>
        <mxCell id="bWRKLLHgpeZalE5h4NvW-54" value="Evaluación" style="whiteSpace=wrap;html=1;" vertex="1" parent="1">
          <mxGeometry x="605" y="470" width="90" height="40" as="geometry" />
        </mxCell>
        <mxCell id="bWRKLLHgpeZalE5h4NvW-55" value="Asistencia" style="whiteSpace=wrap;html=1;" vertex="1" parent="1">
          <mxGeometry x="340" y="287.5" width="90" height="40" as="geometry" />
        </mxCell>
        <mxCell id="bWRKLLHgpeZalE5h4NvW-56" value="Alumno" style="whiteSpace=wrap;html=1;" vertex="1" parent="1">
          <mxGeometry x="340" y="700" width="90" height="40" as="geometry" />
        </mxCell>
        <mxCell id="bWRKLLHgpeZalE5h4NvW-57" value="Profesor" style="whiteSpace=wrap;html=1;" vertex="1" parent="1">
          <mxGeometry x="625" y="287.5" width="90" height="40" as="geometry" />
        </mxCell>
        <mxCell id="bWRKLLHgpeZalE5h4NvW-58" value="Asignatura" style="whiteSpace=wrap;html=1;" vertex="1" parent="1">
          <mxGeometry x="375" y="470" width="90" height="40" as="geometry" />
        </mxCell>
        <mxCell id="bWRKLLHgpeZalE5h4NvW-59" value="Curso" style="whiteSpace=wrap;html=1;" vertex="1" parent="1">
          <mxGeometry x="695" y="912.5" width="90" height="40" as="geometry" />
        </mxCell>
        <mxCell id="bWRKLLHgpeZalE5h4NvW-60" value="Sección" style="whiteSpace=wrap;html=1;" vertex="1" parent="1">
          <mxGeometry x="515" y="912.5" width="90" height="40" as="geometry" />
        </mxCell>
        <mxCell id="bWRKLLHgpeZalE5h4NvW-61" value="ID" style="ellipse;whiteSpace=wrap;html=1;" vertex="1" parent="1">
          <mxGeometry x="725" y="472.5" width="60" height="35" as="geometry" />
        </mxCell>
        <mxCell id="bWRKLLHgpeZalE5h4NvW-62" value="Nota" style="ellipse;whiteSpace=wrap;html=1;" vertex="1" parent="1">
          <mxGeometry x="710" y="520" width="60" height="35" as="geometry" />
        </mxCell>
        <mxCell id="bWRKLLHgpeZalE5h4NvW-63" value="Tipo" style="ellipse;whiteSpace=wrap;html=1;" vertex="1" parent="1">
          <mxGeometry x="735" y="430" width="60" height="35" as="geometry" />
        </mxCell>
        <mxCell id="bWRKLLHgpeZalE5h4NvW-64" value="Fecha" style="ellipse;whiteSpace=wrap;html=1;" vertex="1" parent="1">
          <mxGeometry x="665" y="560" width="60" height="35" as="geometry" />
        </mxCell>
        <mxCell id="bWRKLLHgpeZalE5h4NvW-65" value="ID" style="ellipse;whiteSpace=wrap;html=1;" vertex="1" parent="1">
          <mxGeometry x="240" y="267.5" width="60" height="35" as="geometry" />
        </mxCell>
        <mxCell id="bWRKLLHgpeZalE5h4NvW-66" value="Estado" style="ellipse;whiteSpace=wrap;html=1;" vertex="1" parent="1">
          <mxGeometry x="250" y="217.5" width="60" height="35" as="geometry" />
        </mxCell>
        <mxCell id="bWRKLLHgpeZalE5h4NvW-67" value="Fecha" style="ellipse;whiteSpace=wrap;html=1;" vertex="1" parent="1">
          <mxGeometry x="320" y="197.5" width="60" height="35" as="geometry" />
        </mxCell>
        <mxCell id="bWRKLLHgpeZalE5h4NvW-68" value="RUT" style="ellipse;whiteSpace=wrap;html=1;" vertex="1" parent="1">
          <mxGeometry x="355" y="630" width="60" height="35" as="geometry" />
        </mxCell>
        <mxCell id="bWRKLLHgpeZalE5h4NvW-69" value="Nombre" style="ellipse;whiteSpace=wrap;html=1;" vertex="1" parent="1">
          <mxGeometry x="420" y="640" width="60" height="35" as="geometry" />
        </mxCell>
        <mxCell id="bWRKLLHgpeZalE5h4NvW-70" value="Apellidos" style="ellipse;whiteSpace=wrap;html=1;" vertex="1" parent="1">
          <mxGeometry x="380" y="800" width="60" height="35" as="geometry" />
        </mxCell>
        <mxCell id="bWRKLLHgpeZalE5h4NvW-71" value="Fecha&lt;br&gt;Nacim" style="ellipse;whiteSpace=wrap;html=1;" vertex="1" parent="1">
          <mxGeometry x="410" y="765" width="60" height="35" as="geometry" />
        </mxCell>
        <mxCell id="bWRKLLHgpeZalE5h4NvW-72" value="Dirección" style="ellipse;whiteSpace=wrap;html=1;" vertex="1" parent="1">
          <mxGeometry x="250" y="750" width="60" height="35" as="geometry" />
        </mxCell>
        <mxCell id="bWRKLLHgpeZalE5h4NvW-73" value="Teléfono" style="ellipse;whiteSpace=wrap;html=1;" vertex="1" parent="1">
          <mxGeometry x="333" y="755" width="60" height="35" as="geometry" />
        </mxCell>
        <mxCell id="bWRKLLHgpeZalE5h4NvW-74" value="Email" style="ellipse;whiteSpace=wrap;html=1;" vertex="1" parent="1">
          <mxGeometry x="290" y="790" width="60" height="35" as="geometry" />
        </mxCell>
        <mxCell id="bWRKLLHgpeZalE5h4NvW-75" value="ID" style="ellipse;whiteSpace=wrap;html=1;" vertex="1" parent="1">
          <mxGeometry x="575" y="710" width="60" height="35" as="geometry" />
        </mxCell>
        <mxCell id="bWRKLLHgpeZalE5h4NvW-76" value="Fecha" style="ellipse;whiteSpace=wrap;html=1;" vertex="1" parent="1">
          <mxGeometry x="650" y="710" width="60" height="35" as="geometry" />
        </mxCell>
        <mxCell id="bWRKLLHgpeZalE5h4NvW-77" value="Estado" style="ellipse;whiteSpace=wrap;html=1;" vertex="1" parent="1">
          <mxGeometry x="550" y="755" width="60" height="35" as="geometry" />
        </mxCell>
        <mxCell id="bWRKLLHgpeZalE5h4NvW-78" value="Año" style="ellipse;whiteSpace=wrap;html=1;" vertex="1" parent="1">
          <mxGeometry x="695" y="755" width="60" height="35" as="geometry" />
        </mxCell>
        <mxCell id="bWRKLLHgpeZalE5h4NvW-79" value="Apoderado" style="whiteSpace=wrap;html=1;" vertex="1" parent="1">
          <mxGeometry x="138" y="700" width="90" height="40" as="geometry" />
        </mxCell>
        <mxCell id="bWRKLLHgpeZalE5h4NvW-80" value="RUT" style="ellipse;whiteSpace=wrap;html=1;" vertex="1" parent="1">
          <mxGeometry x="93" y="610" width="60" height="35" as="geometry" />
        </mxCell>
        <mxCell id="bWRKLLHgpeZalE5h4NvW-81" value="Nombre" style="ellipse;whiteSpace=wrap;html=1;" vertex="1" parent="1">
          <mxGeometry x="30" y="750" width="60" height="35" as="geometry" />
        </mxCell>
        <mxCell id="bWRKLLHgpeZalE5h4NvW-82" value="Apellidos" style="ellipse;whiteSpace=wrap;html=1;" vertex="1" parent="1">
          <mxGeometry x="30" y="645" width="60" height="35" as="geometry" />
        </mxCell>
        <mxCell id="bWRKLLHgpeZalE5h4NvW-83" value="Dirección" style="ellipse;whiteSpace=wrap;html=1;" vertex="1" parent="1">
          <mxGeometry x="163" y="610" width="60" height="35" as="geometry" />
        </mxCell>
        <mxCell id="bWRKLLHgpeZalE5h4NvW-84" value="Teléfono" style="ellipse;whiteSpace=wrap;html=1;" vertex="1" parent="1">
          <mxGeometry x="30" y="700" width="60" height="35" as="geometry" />
        </mxCell>
        <mxCell id="bWRKLLHgpeZalE5h4NvW-85" value="Email" style="ellipse;whiteSpace=wrap;html=1;" vertex="1" parent="1">
          <mxGeometry x="103" y="800" width="60" height="35" as="geometry" />
        </mxCell>
        <mxCell id="bWRKLLHgpeZalE5h4NvW-86" value="RUT" style="ellipse;whiteSpace=wrap;html=1;" vertex="1" parent="1">
          <mxGeometry x="605" y="180" width="60" height="35" as="geometry" />
        </mxCell>
        <mxCell id="bWRKLLHgpeZalE5h4NvW-87" value="Nombre" style="ellipse;whiteSpace=wrap;html=1;" vertex="1" parent="1">
          <mxGeometry x="695" y="180" width="60" height="35" as="geometry" />
        </mxCell>
        <mxCell id="bWRKLLHgpeZalE5h4NvW-88" value="Apellidos" style="ellipse;whiteSpace=wrap;html=1;" vertex="1" parent="1">
          <mxGeometry x="595" y="230" width="60" height="35" as="geometry" />
        </mxCell>
        <mxCell id="bWRKLLHgpeZalE5h4NvW-89" value="Titulo" style="ellipse;whiteSpace=wrap;html=1;" vertex="1" parent="1">
          <mxGeometry x="715" y="230" width="60" height="35" as="geometry" />
        </mxCell>
        <mxCell id="bWRKLLHgpeZalE5h4NvW-90" value="Código" style="ellipse;whiteSpace=wrap;html=1;" vertex="1" parent="1">
          <mxGeometry x="360" y="530" width="60" height="35" as="geometry" />
        </mxCell>
        <mxCell id="bWRKLLHgpeZalE5h4NvW-91" value="Nombre" style="ellipse;whiteSpace=wrap;html=1;" vertex="1" parent="1">
          <mxGeometry x="430" y="530" width="60" height="35" as="geometry" />
        </mxCell>
        <mxCell id="bWRKLLHgpeZalE5h4NvW-92" value="Código" style="ellipse;whiteSpace=wrap;html=1;" vertex="1" parent="1">
          <mxGeometry x="665" y="985" width="60" height="35" as="geometry" />
        </mxCell>
        <mxCell id="bWRKLLHgpeZalE5h4NvW-93" value="Nivel" style="ellipse;whiteSpace=wrap;html=1;" vertex="1" parent="1">
          <mxGeometry x="755" y="985" width="60" height="35" as="geometry" />
        </mxCell>
        <mxCell id="bWRKLLHgpeZalE5h4NvW-94" value="Código" style="ellipse;whiteSpace=wrap;html=1;" vertex="1" parent="1">
          <mxGeometry x="485" y="985" width="60" height="35" as="geometry" />
        </mxCell>
        <mxCell id="bWRKLLHgpeZalE5h4NvW-95" value="Letra" style="ellipse;whiteSpace=wrap;html=1;" vertex="1" parent="1">
          <mxGeometry x="575" y="985" width="60" height="35" as="geometry" />
        </mxCell>
        <mxCell id="bWRKLLHgpeZalE5h4NvW-96" value="" style="endArrow=none;html=1;rounded=0;entryX=0;entryY=0;entryDx=0;entryDy=0;exitX=0.5;exitY=1;exitDx=0;exitDy=0;" edge="1" parent="1" source="bWRKLLHgpeZalE5h4NvW-77" target="bWRKLLHgpeZalE5h4NvW-53">
          <mxGeometry width="50" height="50" relative="1" as="geometry">
            <mxPoint x="575" y="877.5" as="sourcePoint" />
            <mxPoint x="625" y="827.5" as="targetPoint" />
          </mxGeometry>
        </mxCell>
        <mxCell id="bWRKLLHgpeZalE5h4NvW-97" value="" style="endArrow=none;html=1;rounded=0;entryX=0.25;entryY=0;entryDx=0;entryDy=0;exitX=0.5;exitY=1;exitDx=0;exitDy=0;" edge="1" parent="1" source="bWRKLLHgpeZalE5h4NvW-75" target="bWRKLLHgpeZalE5h4NvW-53">
          <mxGeometry width="50" height="50" relative="1" as="geometry">
            <mxPoint x="585" y="887.5" as="sourcePoint" />
            <mxPoint x="635" y="837.5" as="targetPoint" />
          </mxGeometry>
        </mxCell>
        <mxCell id="bWRKLLHgpeZalE5h4NvW-98" value="" style="endArrow=none;html=1;rounded=0;entryX=0.75;entryY=0;entryDx=0;entryDy=0;exitX=0.5;exitY=1;exitDx=0;exitDy=0;" edge="1" parent="1" source="bWRKLLHgpeZalE5h4NvW-76" target="bWRKLLHgpeZalE5h4NvW-53">
          <mxGeometry width="50" height="50" relative="1" as="geometry">
            <mxPoint x="595" y="897.5" as="sourcePoint" />
            <mxPoint x="645" y="847.5" as="targetPoint" />
          </mxGeometry>
        </mxCell>
        <mxCell id="bWRKLLHgpeZalE5h4NvW-99" value="" style="endArrow=none;html=1;rounded=0;entryX=1;entryY=0;entryDx=0;entryDy=0;exitX=0.5;exitY=1;exitDx=0;exitDy=0;" edge="1" parent="1" source="bWRKLLHgpeZalE5h4NvW-78" target="bWRKLLHgpeZalE5h4NvW-53">
          <mxGeometry width="50" height="50" relative="1" as="geometry">
            <mxPoint x="605" y="907.5" as="sourcePoint" />
            <mxPoint x="655" y="857.5" as="targetPoint" />
          </mxGeometry>
        </mxCell>
        <mxCell id="bWRKLLHgpeZalE5h4NvW-100" value="" style="endArrow=none;html=1;rounded=0;exitX=0.5;exitY=0;exitDx=0;exitDy=0;entryX=0.769;entryY=0.938;entryDx=0;entryDy=0;entryPerimeter=0;" edge="1" parent="1" source="bWRKLLHgpeZalE5h4NvW-55" target="bWRKLLHgpeZalE5h4NvW-67">
          <mxGeometry width="50" height="50" relative="1" as="geometry">
            <mxPoint x="218" y="307.5" as="sourcePoint" />
            <mxPoint x="310" y="272.5" as="targetPoint" />
          </mxGeometry>
        </mxCell>
        <mxCell id="bWRKLLHgpeZalE5h4NvW-101" value="" style="endArrow=none;html=1;rounded=0;entryX=0.25;entryY=0;entryDx=0;entryDy=0;exitX=1;exitY=1;exitDx=0;exitDy=0;" edge="1" parent="1" source="bWRKLLHgpeZalE5h4NvW-66" target="bWRKLLHgpeZalE5h4NvW-55">
          <mxGeometry width="50" height="50" relative="1" as="geometry">
            <mxPoint x="228" y="317.5" as="sourcePoint" />
            <mxPoint x="278" y="267.5" as="targetPoint" />
          </mxGeometry>
        </mxCell>
        <mxCell id="bWRKLLHgpeZalE5h4NvW-102" value="" style="endArrow=none;html=1;rounded=0;entryX=0;entryY=0.25;entryDx=0;entryDy=0;exitX=1;exitY=0.5;exitDx=0;exitDy=0;" edge="1" parent="1" source="bWRKLLHgpeZalE5h4NvW-65" target="bWRKLLHgpeZalE5h4NvW-55">
          <mxGeometry width="50" height="50" relative="1" as="geometry">
            <mxPoint x="238" y="327.5" as="sourcePoint" />
            <mxPoint x="288" y="277.5" as="targetPoint" />
          </mxGeometry>
        </mxCell>
        <mxCell id="bWRKLLHgpeZalE5h4NvW-103" value="" style="endArrow=none;html=1;rounded=0;entryX=1;entryY=0.25;entryDx=0;entryDy=0;exitX=0;exitY=1;exitDx=0;exitDy=0;" edge="1" parent="1" source="bWRKLLHgpeZalE5h4NvW-63" target="bWRKLLHgpeZalE5h4NvW-54">
          <mxGeometry width="50" height="50" relative="1" as="geometry">
            <mxPoint x="535" y="485" as="sourcePoint" />
            <mxPoint x="585" y="435" as="targetPoint" />
          </mxGeometry>
        </mxCell>
        <mxCell id="bWRKLLHgpeZalE5h4NvW-104" value="" style="endArrow=none;html=1;rounded=0;entryX=1;entryY=0.75;entryDx=0;entryDy=0;exitX=0;exitY=0.5;exitDx=0;exitDy=0;" edge="1" parent="1" source="bWRKLLHgpeZalE5h4NvW-61" target="bWRKLLHgpeZalE5h4NvW-54">
          <mxGeometry width="50" height="50" relative="1" as="geometry">
            <mxPoint x="545" y="495" as="sourcePoint" />
            <mxPoint x="595" y="445" as="targetPoint" />
          </mxGeometry>
        </mxCell>
        <mxCell id="bWRKLLHgpeZalE5h4NvW-105" value="" style="endArrow=none;html=1;rounded=0;entryX=1;entryY=1;entryDx=0;entryDy=0;exitX=0;exitY=0;exitDx=0;exitDy=0;" edge="1" parent="1" source="bWRKLLHgpeZalE5h4NvW-62" target="bWRKLLHgpeZalE5h4NvW-54">
          <mxGeometry width="50" height="50" relative="1" as="geometry">
            <mxPoint x="555" y="505" as="sourcePoint" />
            <mxPoint x="605" y="455" as="targetPoint" />
          </mxGeometry>
        </mxCell>
        <mxCell id="bWRKLLHgpeZalE5h4NvW-106" value="" style="endArrow=none;html=1;rounded=0;entryX=0.75;entryY=1;entryDx=0;entryDy=0;exitX=0.5;exitY=0;exitDx=0;exitDy=0;" edge="1" parent="1" source="bWRKLLHgpeZalE5h4NvW-64" target="bWRKLLHgpeZalE5h4NvW-54">
          <mxGeometry width="50" height="50" relative="1" as="geometry">
            <mxPoint x="565" y="515" as="sourcePoint" />
            <mxPoint x="615" y="465" as="targetPoint" />
          </mxGeometry>
        </mxCell>
        <mxCell id="bWRKLLHgpeZalE5h4NvW-107" value="" style="endArrow=none;html=1;rounded=0;entryX=0.25;entryY=0;entryDx=0;entryDy=0;exitX=0.753;exitY=0.897;exitDx=0;exitDy=0;exitPerimeter=0;" edge="1" parent="1" source="bWRKLLHgpeZalE5h4NvW-88" target="bWRKLLHgpeZalE5h4NvW-57">
          <mxGeometry width="50" height="50" relative="1" as="geometry">
            <mxPoint x="560" y="350" as="sourcePoint" />
            <mxPoint x="610" y="300" as="targetPoint" />
          </mxGeometry>
        </mxCell>
        <mxCell id="bWRKLLHgpeZalE5h4NvW-108" value="" style="endArrow=none;html=1;rounded=0;entryX=0.5;entryY=0;entryDx=0;entryDy=0;exitX=1;exitY=1;exitDx=0;exitDy=0;" edge="1" parent="1" source="bWRKLLHgpeZalE5h4NvW-86" target="bWRKLLHgpeZalE5h4NvW-57">
          <mxGeometry width="50" height="50" relative="1" as="geometry">
            <mxPoint x="570" y="360" as="sourcePoint" />
            <mxPoint x="620" y="310" as="targetPoint" />
          </mxGeometry>
        </mxCell>
        <mxCell id="bWRKLLHgpeZalE5h4NvW-109" value="" style="endArrow=none;html=1;rounded=0;exitX=0;exitY=1;exitDx=0;exitDy=0;entryX=0.5;entryY=0;entryDx=0;entryDy=0;" edge="1" parent="1" source="bWRKLLHgpeZalE5h4NvW-87" target="bWRKLLHgpeZalE5h4NvW-57">
          <mxGeometry width="50" height="50" relative="1" as="geometry">
            <mxPoint x="580" y="370" as="sourcePoint" />
            <mxPoint x="685" y="260" as="targetPoint" />
          </mxGeometry>
        </mxCell>
        <mxCell id="bWRKLLHgpeZalE5h4NvW-110" value="" style="endArrow=none;html=1;rounded=0;entryX=0.75;entryY=0;entryDx=0;entryDy=0;exitX=0;exitY=1;exitDx=0;exitDy=0;" edge="1" parent="1" source="bWRKLLHgpeZalE5h4NvW-89" target="bWRKLLHgpeZalE5h4NvW-57">
          <mxGeometry width="50" height="50" relative="1" as="geometry">
            <mxPoint x="590" y="380" as="sourcePoint" />
            <mxPoint x="640" y="330" as="targetPoint" />
          </mxGeometry>
        </mxCell>
        <mxCell id="bWRKLLHgpeZalE5h4NvW-111" value="" style="endArrow=none;html=1;rounded=0;entryX=0.5;entryY=0;entryDx=0;entryDy=0;exitX=0.5;exitY=1;exitDx=0;exitDy=0;" edge="1" parent="1" source="bWRKLLHgpeZalE5h4NvW-83" target="bWRKLLHgpeZalE5h4NvW-79">
          <mxGeometry width="50" height="50" relative="1" as="geometry">
            <mxPoint x="-7" y="735" as="sourcePoint" />
            <mxPoint x="43" y="685" as="targetPoint" />
          </mxGeometry>
        </mxCell>
        <mxCell id="bWRKLLHgpeZalE5h4NvW-112" value="" style="endArrow=none;html=1;rounded=0;entryX=0.25;entryY=0;entryDx=0;entryDy=0;exitX=0.5;exitY=1;exitDx=0;exitDy=0;" edge="1" parent="1" source="bWRKLLHgpeZalE5h4NvW-80" target="bWRKLLHgpeZalE5h4NvW-79">
          <mxGeometry width="50" height="50" relative="1" as="geometry">
            <mxPoint x="3" y="745" as="sourcePoint" />
            <mxPoint x="53" y="695" as="targetPoint" />
          </mxGeometry>
        </mxCell>
        <mxCell id="bWRKLLHgpeZalE5h4NvW-113" value="" style="endArrow=none;html=1;rounded=0;entryX=0;entryY=0.25;entryDx=0;entryDy=0;exitX=1;exitY=1;exitDx=0;exitDy=0;" edge="1" parent="1" source="bWRKLLHgpeZalE5h4NvW-82" target="bWRKLLHgpeZalE5h4NvW-79">
          <mxGeometry width="50" height="50" relative="1" as="geometry">
            <mxPoint x="13" y="755" as="sourcePoint" />
            <mxPoint x="63" y="705" as="targetPoint" />
          </mxGeometry>
        </mxCell>
        <mxCell id="bWRKLLHgpeZalE5h4NvW-114" value="" style="endArrow=none;html=1;rounded=0;entryX=0.5;entryY=0;entryDx=0;entryDy=0;exitX=0.25;exitY=1;exitDx=0;exitDy=0;" edge="1" parent="1" source="bWRKLLHgpeZalE5h4NvW-79" target="bWRKLLHgpeZalE5h4NvW-85">
          <mxGeometry width="50" height="50" relative="1" as="geometry">
            <mxPoint x="23" y="765" as="sourcePoint" />
            <mxPoint x="73" y="715" as="targetPoint" />
          </mxGeometry>
        </mxCell>
        <mxCell id="bWRKLLHgpeZalE5h4NvW-115" value="" style="endArrow=none;html=1;rounded=0;entryX=1;entryY=0.5;entryDx=0;entryDy=0;exitX=0;exitY=0.5;exitDx=0;exitDy=0;" edge="1" parent="1" source="bWRKLLHgpeZalE5h4NvW-79" target="bWRKLLHgpeZalE5h4NvW-84">
          <mxGeometry width="50" height="50" relative="1" as="geometry">
            <mxPoint x="33" y="775" as="sourcePoint" />
            <mxPoint x="83" y="725" as="targetPoint" />
          </mxGeometry>
        </mxCell>
        <mxCell id="bWRKLLHgpeZalE5h4NvW-116" value="" style="endArrow=none;html=1;rounded=0;entryX=1;entryY=0;entryDx=0;entryDy=0;exitX=0;exitY=0.75;exitDx=0;exitDy=0;" edge="1" parent="1" source="bWRKLLHgpeZalE5h4NvW-79" target="bWRKLLHgpeZalE5h4NvW-81">
          <mxGeometry width="50" height="50" relative="1" as="geometry">
            <mxPoint x="43" y="785" as="sourcePoint" />
            <mxPoint x="93" y="735" as="targetPoint" />
          </mxGeometry>
        </mxCell>
        <mxCell id="bWRKLLHgpeZalE5h4NvW-117" value="" style="endArrow=none;html=1;rounded=0;exitX=1;exitY=0;exitDx=0;exitDy=0;entryX=0;entryY=0.75;entryDx=0;entryDy=0;" edge="1" parent="1" source="bWRKLLHgpeZalE5h4NvW-72" target="bWRKLLHgpeZalE5h4NvW-56">
          <mxGeometry width="50" height="50" relative="1" as="geometry">
            <mxPoint x="490" y="742.5" as="sourcePoint" />
            <mxPoint x="540" y="692.5" as="targetPoint" />
          </mxGeometry>
        </mxCell>
        <mxCell id="bWRKLLHgpeZalE5h4NvW-118" value="" style="endArrow=none;html=1;rounded=0;exitX=0.5;exitY=0;exitDx=0;exitDy=0;entryX=0;entryY=1;entryDx=0;entryDy=0;" edge="1" parent="1" source="bWRKLLHgpeZalE5h4NvW-74" target="bWRKLLHgpeZalE5h4NvW-56">
          <mxGeometry width="50" height="50" relative="1" as="geometry">
            <mxPoint x="500" y="752.5" as="sourcePoint" />
            <mxPoint x="550" y="702.5" as="targetPoint" />
          </mxGeometry>
        </mxCell>
        <mxCell id="bWRKLLHgpeZalE5h4NvW-119" value="" style="endArrow=none;html=1;rounded=0;exitX=0.25;exitY=1;exitDx=0;exitDy=0;entryX=0.5;entryY=0;entryDx=0;entryDy=0;" edge="1" parent="1" source="bWRKLLHgpeZalE5h4NvW-56" target="bWRKLLHgpeZalE5h4NvW-73">
          <mxGeometry width="50" height="50" relative="1" as="geometry">
            <mxPoint x="510" y="762.5" as="sourcePoint" />
            <mxPoint x="560" y="712.5" as="targetPoint" />
          </mxGeometry>
        </mxCell>
        <mxCell id="bWRKLLHgpeZalE5h4NvW-120" value="" style="endArrow=none;html=1;rounded=0;entryX=0.75;entryY=1;entryDx=0;entryDy=0;exitX=0.5;exitY=0;exitDx=0;exitDy=0;" edge="1" parent="1" source="bWRKLLHgpeZalE5h4NvW-71" target="bWRKLLHgpeZalE5h4NvW-56">
          <mxGeometry width="50" height="50" relative="1" as="geometry">
            <mxPoint x="520" y="772.5" as="sourcePoint" />
            <mxPoint x="570" y="722.5" as="targetPoint" />
          </mxGeometry>
        </mxCell>
        <mxCell id="bWRKLLHgpeZalE5h4NvW-121" value="" style="endArrow=none;html=1;rounded=0;entryX=0.5;entryY=1;entryDx=0;entryDy=0;" edge="1" parent="1" target="bWRKLLHgpeZalE5h4NvW-69">
          <mxGeometry width="50" height="50" relative="1" as="geometry">
            <mxPoint x="408" y="700" as="sourcePoint" />
            <mxPoint x="580" y="732.5" as="targetPoint" />
          </mxGeometry>
        </mxCell>
        <mxCell id="bWRKLLHgpeZalE5h4NvW-122" value="" style="endArrow=none;html=1;rounded=0;exitX=0.5;exitY=1;exitDx=0;exitDy=0;entryX=0.5;entryY=0;entryDx=0;entryDy=0;" edge="1" parent="1" source="bWRKLLHgpeZalE5h4NvW-56" target="bWRKLLHgpeZalE5h4NvW-70">
          <mxGeometry width="50" height="50" relative="1" as="geometry">
            <mxPoint x="540" y="792.5" as="sourcePoint" />
            <mxPoint x="590" y="742.5" as="targetPoint" />
          </mxGeometry>
        </mxCell>
        <mxCell id="bWRKLLHgpeZalE5h4NvW-123" value="" style="endArrow=none;html=1;rounded=0;exitX=0.5;exitY=0;exitDx=0;exitDy=0;entryX=0.5;entryY=1;entryDx=0;entryDy=0;" edge="1" parent="1" source="bWRKLLHgpeZalE5h4NvW-56" target="bWRKLLHgpeZalE5h4NvW-68">
          <mxGeometry width="50" height="50" relative="1" as="geometry">
            <mxPoint x="490" y="752.5" as="sourcePoint" />
            <mxPoint x="540" y="702.5" as="targetPoint" />
          </mxGeometry>
        </mxCell>
        <mxCell id="bWRKLLHgpeZalE5h4NvW-124" value="" style="endArrow=none;html=1;rounded=0;exitX=0.813;exitY=0.971;exitDx=0;exitDy=0;entryX=0.5;entryY=0;entryDx=0;entryDy=0;exitPerimeter=0;" edge="1" parent="1" source="bWRKLLHgpeZalE5h4NvW-58" target="bWRKLLHgpeZalE5h4NvW-91">
          <mxGeometry width="50" height="50" relative="1" as="geometry">
            <mxPoint x="475" y="490" as="sourcePoint" />
            <mxPoint x="525" y="440" as="targetPoint" />
          </mxGeometry>
        </mxCell>
        <mxCell id="bWRKLLHgpeZalE5h4NvW-125" value="" style="endArrow=none;html=1;rounded=0;entryX=0.5;entryY=0;entryDx=0;entryDy=0;exitX=0.25;exitY=1;exitDx=0;exitDy=0;" edge="1" parent="1" source="bWRKLLHgpeZalE5h4NvW-58" target="bWRKLLHgpeZalE5h4NvW-90">
          <mxGeometry width="50" height="50" relative="1" as="geometry">
            <mxPoint x="275" y="510" as="sourcePoint" />
            <mxPoint x="325" y="460" as="targetPoint" />
          </mxGeometry>
        </mxCell>
        <mxCell id="bWRKLLHgpeZalE5h4NvW-126" value="" style="endArrow=none;html=1;rounded=0;entryX=0.75;entryY=1;entryDx=0;entryDy=0;exitX=0.5;exitY=0;exitDx=0;exitDy=0;" edge="1" parent="1" source="bWRKLLHgpeZalE5h4NvW-93" target="bWRKLLHgpeZalE5h4NvW-59">
          <mxGeometry width="50" height="50" relative="1" as="geometry">
            <mxPoint x="590" y="942.5" as="sourcePoint" />
            <mxPoint x="640" y="892.5" as="targetPoint" />
          </mxGeometry>
        </mxCell>
        <mxCell id="bWRKLLHgpeZalE5h4NvW-127" value="" style="endArrow=none;html=1;rounded=0;entryX=0.25;entryY=1;entryDx=0;entryDy=0;exitX=0.5;exitY=0;exitDx=0;exitDy=0;" edge="1" parent="1" source="bWRKLLHgpeZalE5h4NvW-92" target="bWRKLLHgpeZalE5h4NvW-59">
          <mxGeometry width="50" height="50" relative="1" as="geometry">
            <mxPoint x="675" y="1012.5" as="sourcePoint" />
            <mxPoint x="650" y="902.5" as="targetPoint" />
          </mxGeometry>
        </mxCell>
        <mxCell id="bWRKLLHgpeZalE5h4NvW-128" value="" style="endArrow=none;html=1;rounded=0;entryX=0.75;entryY=1;entryDx=0;entryDy=0;exitX=0.5;exitY=0;exitDx=0;exitDy=0;" edge="1" parent="1" source="bWRKLLHgpeZalE5h4NvW-95" target="bWRKLLHgpeZalE5h4NvW-60">
          <mxGeometry width="50" height="50" relative="1" as="geometry">
            <mxPoint x="195" y="962.5" as="sourcePoint" />
            <mxPoint x="245" y="912.5" as="targetPoint" />
          </mxGeometry>
        </mxCell>
        <mxCell id="bWRKLLHgpeZalE5h4NvW-129" value="" style="endArrow=none;html=1;rounded=0;entryX=0.25;entryY=1;entryDx=0;entryDy=0;exitX=0.5;exitY=0;exitDx=0;exitDy=0;" edge="1" parent="1" source="bWRKLLHgpeZalE5h4NvW-94" target="bWRKLLHgpeZalE5h4NvW-60">
          <mxGeometry width="50" height="50" relative="1" as="geometry">
            <mxPoint x="205" y="972.5" as="sourcePoint" />
            <mxPoint x="255" y="922.5" as="targetPoint" />
          </mxGeometry>
        </mxCell>
        <mxCell id="bWRKLLHgpeZalE5h4NvW-130" value="" style="endArrow=none;html=1;rounded=0;entryX=0;entryY=0.5;entryDx=0;entryDy=0;exitX=1;exitY=0.5;exitDx=0;exitDy=0;" edge="1" parent="1" source="bWRKLLHgpeZalE5h4NvW-79" target="bWRKLLHgpeZalE5h4NvW-56">
          <mxGeometry width="50" height="50" relative="1" as="geometry">
            <mxPoint x="150" y="710" as="sourcePoint" />
            <mxPoint x="310" y="719" as="targetPoint" />
          </mxGeometry>
        </mxCell>
        <mxCell id="bWRKLLHgpeZalE5h4NvW-131" value="" style="endArrow=none;html=1;rounded=0;exitX=1;exitY=1;exitDx=0;exitDy=0;entryX=0;entryY=0.5;entryDx=0;entryDy=0;" edge="1" parent="1" source="bWRKLLHgpeZalE5h4NvW-56" target="bWRKLLHgpeZalE5h4NvW-53">
          <mxGeometry width="50" height="50" relative="1" as="geometry">
            <mxPoint x="480" y="750" as="sourcePoint" />
            <mxPoint x="530" y="700" as="targetPoint" />
          </mxGeometry>
        </mxCell>
        <mxCell id="bWRKLLHgpeZalE5h4NvW-132" value="" style="endArrow=none;html=1;rounded=0;entryX=0.25;entryY=1;entryDx=0;entryDy=0;exitX=0.5;exitY=0;exitDx=0;exitDy=0;" edge="1" parent="1" source="bWRKLLHgpeZalE5h4NvW-60" target="bWRKLLHgpeZalE5h4NvW-53">
          <mxGeometry width="50" height="50" relative="1" as="geometry">
            <mxPoint x="555" y="962.5" as="sourcePoint" />
            <mxPoint x="605" y="912.5" as="targetPoint" />
          </mxGeometry>
        </mxCell>
        <mxCell id="bWRKLLHgpeZalE5h4NvW-133" value="" style="endArrow=none;html=1;rounded=0;entryX=0.75;entryY=1;entryDx=0;entryDy=0;exitX=0.5;exitY=0;exitDx=0;exitDy=0;" edge="1" parent="1" source="bWRKLLHgpeZalE5h4NvW-59" target="bWRKLLHgpeZalE5h4NvW-53">
          <mxGeometry width="50" height="50" relative="1" as="geometry">
            <mxPoint x="540" y="992.5" as="sourcePoint" />
            <mxPoint x="638" y="862.5" as="targetPoint" />
          </mxGeometry>
        </mxCell>
        <mxCell id="bWRKLLHgpeZalE5h4NvW-134" value="" style="endArrow=none;html=1;rounded=0;exitX=1;exitY=0.5;exitDx=0;exitDy=0;entryX=0.5;entryY=1;entryDx=0;entryDy=0;" edge="1" parent="1" source="bWRKLLHgpeZalE5h4NvW-56" target="bWRKLLHgpeZalE5h4NvW-54">
          <mxGeometry width="50" height="50" relative="1" as="geometry">
            <mxPoint x="500" y="710" as="sourcePoint" />
            <mxPoint x="550" y="660" as="targetPoint" />
            <Array as="points">
              <mxPoint x="550" y="640" />
            </Array>
          </mxGeometry>
        </mxCell>
        <mxCell id="bWRKLLHgpeZalE5h4NvW-135" value="" style="endArrow=none;html=1;rounded=0;exitX=0;exitY=0;exitDx=0;exitDy=0;entryX=0;entryY=1;entryDx=0;entryDy=0;" edge="1" parent="1" source="bWRKLLHgpeZalE5h4NvW-56" target="bWRKLLHgpeZalE5h4NvW-55">
          <mxGeometry width="50" height="50" relative="1" as="geometry">
            <mxPoint x="280" y="500" as="sourcePoint" />
            <mxPoint x="330" y="450" as="targetPoint" />
            <Array as="points">
              <mxPoint x="300" y="520" />
            </Array>
          </mxGeometry>
        </mxCell>
        <mxCell id="bWRKLLHgpeZalE5h4NvW-136" value="" style="endArrow=none;html=1;rounded=0;entryX=0.75;entryY=1;entryDx=0;entryDy=0;exitX=0.5;exitY=0;exitDx=0;exitDy=0;" edge="1" parent="1" source="bWRKLLHgpeZalE5h4NvW-58" target="bWRKLLHgpeZalE5h4NvW-55">
          <mxGeometry width="50" height="50" relative="1" as="geometry">
            <mxPoint x="430" y="430" as="sourcePoint" />
            <mxPoint x="480" y="380" as="targetPoint" />
          </mxGeometry>
        </mxCell>
        <mxCell id="bWRKLLHgpeZalE5h4NvW-137" value="" style="endArrow=none;html=1;rounded=0;exitX=1;exitY=0.5;exitDx=0;exitDy=0;entryX=0;entryY=0.5;entryDx=0;entryDy=0;" edge="1" parent="1" source="bWRKLLHgpeZalE5h4NvW-58" target="bWRKLLHgpeZalE5h4NvW-54">
          <mxGeometry width="50" height="50" relative="1" as="geometry">
            <mxPoint x="520" y="480" as="sourcePoint" />
            <mxPoint x="570" y="430" as="targetPoint" />
          </mxGeometry>
        </mxCell>
        <mxCell id="bWRKLLHgpeZalE5h4NvW-138" value="" style="endArrow=none;html=1;rounded=0;entryX=0.5;entryY=1;entryDx=0;entryDy=0;exitX=0.5;exitY=0;exitDx=0;exitDy=0;" edge="1" parent="1" source="bWRKLLHgpeZalE5h4NvW-54" target="bWRKLLHgpeZalE5h4NvW-57">
          <mxGeometry width="50" height="50" relative="1" as="geometry">
            <mxPoint x="580" y="430" as="sourcePoint" />
            <mxPoint x="630" y="380" as="targetPoint" />
          </mxGeometry>
        </mxCell>
        <mxCell id="bWRKLLHgpeZalE5h4NvW-139" value="" style="endArrow=none;html=1;rounded=0;entryX=0;entryY=0.5;entryDx=0;entryDy=0;exitX=1;exitY=0.5;exitDx=0;exitDy=0;" edge="1" parent="1" source="bWRKLLHgpeZalE5h4NvW-55" target="bWRKLLHgpeZalE5h4NvW-57">
          <mxGeometry width="50" height="50" relative="1" as="geometry">
            <mxPoint x="500" y="330" as="sourcePoint" />
            <mxPoint x="550" y="280" as="targetPoint" />
          </mxGeometry>
        </mxCell>
        <mxCell id="bWRKLLHgpeZalE5h4NvW-140" value="" style="endArrow=none;html=1;rounded=0;entryX=0;entryY=1;entryDx=0;entryDy=0;exitX=1;exitY=0;exitDx=0;exitDy=0;" edge="1" parent="1" source="bWRKLLHgpeZalE5h4NvW-58" target="bWRKLLHgpeZalE5h4NvW-57">
          <mxGeometry width="50" height="50" relative="1" as="geometry">
            <mxPoint x="500" y="430" as="sourcePoint" />
            <mxPoint x="550" y="380" as="targetPoint" />
          </mxGeometry>
        </mxCell>
      </root>
    </mxGraphModel>
  </diagram>
</mxfile>
